<?xml version="1.0" standalone="no"?>
<!DOCTYPE svg PUBLIC "-//W3C//DTD SVG 20010904//EN"
 "http://www.w3.org/TR/2001/REC-SVG-20010904/DTD/svg10.dtd">
<svg version="1.0" xmlns="http://www.w3.org/2000/svg"
 width="159.000000pt" height="134.000000pt" viewBox="0 0 159.000000 134.000000"
 preserveAspectRatio="xMidYMid meet">

<g transform="translate(0.000000,134.000000) scale(0.100000,-0.100000)"
fill="#000000" stroke="none">
<path d="M754 1324 c4 -12 2 -15 -9 -10 -9 3 -15 0 -15 -10 0 -10 6 -14 14
-11 10 4 13 1 9 -9 -3 -7 0 -14 6 -14 6 0 11 -7 11 -15 0 -8 7 -15 16 -15 12
0 14 4 7 13 -19 24 -23 46 -7 40 9 -3 14 1 14 12 0 11 -5 15 -14 12 -10 -4
-13 -1 -9 9 3 9 -1 14 -12 14 -12 0 -15 -5 -11 -16z"/>
<path d="M1125 1242 c78 -99 87 -112 78 -112 -8 0 -27 -14 -84 -60 -28 -22
-10 -46 22 -30 22 10 23 10 5 -4 -17 -14 -17 -16 -2 -32 16 -15 18 -14 40 9
16 18 30 23 48 20 19 -4 30 1 42 18 13 19 16 20 16 6 0 -24 -90 -88 -115 -81
-14 4 -16 3 -7 -4 8 -5 12 -17 10 -27 -2 -10 3 -20 10 -22 7 -3 10 1 7 9 -3 7
3 18 14 25 16 10 19 9 19 -13 0 -13 -5 -24 -10 -24 -5 0 -6 -4 -3 -10 3 -5 11
-10 16 -10 6 0 8 4 5 9 -3 5 1 12 10 15 22 8 24 8 21 -6 -1 -8 8 -12 24 -11
22 1 26 -2 22 -18 -3 -10 -10 -19 -16 -19 -7 0 -6 -5 2 -12 10 -11 14 -9 23 6
8 15 12 16 19 5 6 -10 9 -7 10 11 0 14 3 19 6 13 10 -25 23 -12 23 22 0 25 4
33 13 29 11 -4 12 5 7 43 -4 26 -6 51 -4 54 2 4 -9 21 -26 38 -16 18 -28 35
-28 39 1 4 -12 12 -28 17 -16 6 -37 19 -46 30 -13 14 -20 17 -25 8 -6 -8 -34
12 -88 60 l-80 72 50 -63z m90 -142 c3 -5 -1 -10 -9 -10 -9 0 -16 5 -16 10 0
6 4 10 9 10 6 0 13 -4 16 -10z"/>
<path d="M275 1261 c6 -30 15 -42 26 -35 5 3 6 11 2 17 -4 7 -8 16 -8 21 0 5
-5 11 -12 13 -8 3 -11 -3 -8 -16z"/>
<path d="M730 1250 c0 -5 7 -10 15 -10 8 0 15 5 15 10 0 6 -7 10 -15 10 -8 0
-15 -4 -15 -10z"/>
<path d="M343 1216 c1 -16 -4 -31 -11 -33 -7 -3 -10 1 -6 11 7 18 -21 23 -31
5 -4 -6 -13 -8 -19 -6 -7 3 -13 -1 -13 -9 0 -16 13 -19 22 -4 8 12 25 13 25 1
0 -16 -44 -21 -60 -6 -27 24 -33 17 -8 -10 l23 -24 57 22 c50 19 57 25 56 47
l-1 25 -4 -25 -5 -25 -14 30 -13 30 2 -29z"/>
<path d="M587 1199 c-10 -11 -16 -23 -13 -26 8 -8 38 25 34 37 -2 6 -11 1 -21
-11z"/>
<path d="M625 1210 c4 -6 11 -8 16 -5 14 9 11 15 -7 15 -8 0 -12 -5 -9 -10z"/>
<path d="M660 1210 c0 -5 5 -10 10 -10 6 0 10 5 10 10 0 6 -4 10 -10 10 -5 0
-10 -4 -10 -10z"/>
<path d="M726 1204 c-4 -9 -3 -20 0 -23 4 -3 9 -1 11 5 2 7 12 10 22 7 9 -2
23 3 30 11 12 14 9 16 -22 16 -23 0 -37 -6 -41 -16z"/>
<path d="M850 1210 c0 -5 5 -10 10 -10 6 0 10 5 10 10 0 6 -4 10 -10 10 -5 0
-10 -4 -10 -10z"/>
<path d="M885 1210 c4 -6 10 -9 13 -6 3 3 11 1 18 -5 8 -7 14 -7 19 1 3 5 5
10 3 11 -33 9 -59 8 -53 -1z"/>
<path d="M690 1200 c0 -5 5 -10 10 -10 6 0 10 5 10 10 0 6 -4 10 -10 10 -5 0
-10 -4 -10 -10z"/>
<path d="M820 1200 c0 -5 5 -10 10 -10 6 0 10 5 10 10 0 6 -4 10 -10 10 -5 0
-10 -4 -10 -10z"/>
<path d="M790 1190 c0 -5 5 -10 10 -10 6 0 10 5 10 10 0 6 -4 10 -10 10 -5 0
-10 -4 -10 -10z"/>
<path d="M388 1180 c-3 -6 -110 -50 -121 -50 -4 0 -17 -9 -29 -20 -15 -14 -18
-23 -10 -32 6 -8 7 -29 2 -58 l-8 -45 19 24 c22 27 23 25 9 -16 -7 -18 -7 -38
-2 -54 9 -23 10 -22 21 20 16 56 20 49 12 -16 -8 -58 0 -68 23 -25 22 40 19
23 -10 -54 -14 -38 -44 -98 -67 -134 -71 -114 -107 -141 -137 -105 -19 23 -4
62 44 113 67 75 86 103 86 132 0 41 -21 53 -79 45 -46 -6 -52 -10 -75 -51 -26
-47 -24 -55 6 -27 10 9 18 11 18 5 0 -6 -15 -20 -34 -31 -57 -36 -52 -53 7
-24 70 34 87 51 87 83 0 30 21 45 39 27 23 -23 10 -56 -45 -118 -61 -68 -88
-120 -79 -150 4 -11 2 -19 -5 -19 -6 0 -8 -4 -5 -10 3 -5 18 -10 33 -10 26 -1
26 -1 8 -15 -19 -15 -19 -15 3 -15 29 0 61 17 61 33 1 7 14 27 30 46 l29 34
-19 -54 c-10 -30 -21 -65 -24 -79 -9 -38 -22 -53 -47 -55 -23 -2 -27 -10 -36
-77 -5 -37 9 -53 21 -25 3 6 3 -5 0 -25 -5 -33 -4 -36 14 -31 17 4 19 1 14
-22 -4 -23 -2 -26 14 -22 11 3 38 9 62 12 28 5 42 12 42 22 0 9 6 13 15 9 9
-3 15 0 15 8 0 17 -42 28 -74 20 -30 -7 -59 31 -54 73 2 22 14 33 52 53 57 30
96 74 97 110 0 14 4 34 8 45 8 19 8 19 19 -2 16 -30 15 -53 -4 -74 -14 -15
-14 -21 0 -53 15 -35 35 -48 37 -23 0 6 5 -1 11 -16 7 -20 15 -26 28 -22 10 3
21 1 25 -5 4 -6 17 -10 28 -8 12 1 28 -1 35 -5 8 -5 12 -2 12 9 0 11 6 15 20
11 25 -6 26 5 2 27 -13 11 -28 14 -50 10 -27 -6 -37 -1 -68 30 l-37 37 32 32
c17 18 31 40 31 49 0 9 -18 32 -40 51 -22 19 -40 37 -40 40 0 4 18 7 39 7 22
0 42 5 44 13 3 7 6 4 6 -6 1 -10 7 -17 13 -15 18 6 41 -19 31 -34 -4 -7 -8
-23 -8 -36 -1 -17 3 -21 17 -16 11 3 18 0 18 -8 1 -9 5 -8 14 4 10 13 15 15
24 6 9 -9 12 -6 12 14 0 15 -4 30 -10 33 -5 3 -10 15 -10 26 0 11 -23 45 -51
75 -49 51 -59 75 -16 37 14 -13 21 -14 24 -6 3 7 15 28 29 48 26 38 30 50 14
40 -5 -3 -12 7 -15 22 -3 15 -12 40 -20 55 -11 23 -11 26 1 21 21 -8 17 7 -8
34 -20 21 -20 23 -3 23 16 0 15 4 -9 29 -20 21 -24 31 -15 37 9 5 6 10 -9 15
-14 5 -22 17 -22 32 0 20 -5 24 -30 23 -16 -1 -31 -3 -32 -6z m16 -55 c-4 -8
-12 -15 -20 -15 -17 0 -18 17 -1 23 22 9 27 7 21 -8z m-88 -42 c-3 -3 -13 -2
-23 2 -17 7 -17 8 2 15 19 7 34 -5 21 -17z m84 2 c0 -3 -6 -14 -12 -25 -11
-16 -9 -22 6 -33 23 -17 14 -50 -11 -45 -12 2 -18 13 -18 33 0 19 -5 29 -12
28 -7 -2 -13 2 -13 8 0 5 -4 7 -10 4 -5 -3 -10 -4 -10 -1 0 3 12 12 28 20 27
15 52 20 52 11z"/>
<path d="M940 1180 c0 -5 5 -10 10 -10 6 0 9 -4 8 -9 -2 -5 0 -9 5 -10 9 -1
10 1 2 22 -8 18 -25 24 -25 7z"/>
<path d="M740 1145 c0 -14 5 -25 10 -25 6 0 10 11 10 25 0 14 -4 25 -10 25 -5
0 -10 -11 -10 -25z"/>
<path d="M770 1145 c0 -14 5 -25 10 -25 6 0 10 11 10 25 0 14 -4 25 -10 25 -5
0 -10 -11 -10 -25z"/>
<path d="M555 1150 c4 -6 11 -8 16 -5 14 9 11 15 -7 15 -8 0 -12 -5 -9 -10z"/>
<path d="M550 1120 c0 -5 5 -10 10 -10 6 0 10 5 10 10 0 6 -4 10 -10 10 -5 0
-10 -4 -10 -10z"/>
<path d="M666 1121 c-4 -6 -4 -21 0 -33 6 -19 7 -19 16 -5 11 20 -5 57 -16 38z"/>
<path d="M846 1115 c-3 -9 -2 -24 3 -32 7 -14 10 -13 16 6 8 27 -9 51 -19 26z"/>
<path d="M960 1120 c0 -5 5 -10 10 -10 6 0 10 5 10 10 0 6 -4 10 -10 10 -5 0
-10 -4 -10 -10z"/>
<path d="M747 1093 c4 -11 3 -14 -5 -9 -8 5 -12 0 -12 -13 0 -15 4 -19 18 -14
15 6 15 5 3 -10 -17 -22 -61 -23 -61 -1 0 8 5 12 10 9 6 -3 10 1 10 10 0 22
-23 14 -35 -13 -12 -27 -32 -35 -53 -22 -10 5 -12 10 -4 10 6 0 12 5 12 11 0
6 -7 9 -15 5 -8 -3 -15 -1 -15 5 0 15 -26 39 -42 39 -9 -1 -9 -4 3 -13 26 -20
50 -76 54 -127 3 -42 0 -51 -27 -76 -16 -16 -39 -46 -50 -68 -19 -38 -19 -38
1 -60 11 -11 23 -33 26 -48 10 -39 21 -35 29 10 11 71 87 152 142 152 24 0 24
-2 24 -100 l0 -99 -87 -4 -88 -3 88 -2 88 -2 -2 -107 c-1 -99 0 -107 19 -114
14 -5 22 -3 26 7 4 9 -1 14 -15 14 -19 0 -20 6 -17 98 l3 97 84 3 84 3 -5 -46
c-7 -54 -47 -119 -88 -140 -47 -24 -40 -52 16 -61 41 -6 48 -4 75 22 40 38 78
119 85 180 6 44 2 57 -25 106 -25 45 -31 64 -26 90 5 28 2 37 -28 66 -30 29
-34 38 -31 81 2 47 26 109 48 123 6 4 7 10 4 14 -8 8 -38 -20 -38 -35 0 -6 -7
-8 -15 -5 -8 4 -15 1 -15 -5 0 -6 6 -11 13 -11 7 0 5 -5 -5 -10 -21 -13 -41
-5 -53 22 -12 27 -35 35 -35 13 0 -9 5 -13 10 -10 6 3 10 -1 10 -9 0 -22 -44
-21 -61 1 -12 15 -12 16 4 10 13 -5 17 -1 17 14 0 13 -4 18 -12 13 -8 -5 -9
-2 -5 9 5 13 1 17 -18 17 -19 0 -23 -4 -18 -17z m150 -126 c28 -28 4 -40 -46
-22 -24 8 -63 15 -86 15 -23 0 -62 -7 -86 -15 -47 -17 -72 -7 -50 19 18 21 43
25 153 22 77 -1 102 -5 115 -19z m-59 -111 c55 -28 102 -103 102 -161 0 -25
-1 -25 -85 -25 l-85 0 0 100 c0 94 1 100 20 100 12 0 33 -6 48 -14z"/>
<path d="M790 775 c0 -41 0 -77 0 -80 0 -3 3 -6 7 -7 3 -2 5 28 4 66 -2 44 2
71 9 76 8 5 7 9 -4 13 -14 6 -16 -4 -16 -68z"/>
<path d="M835 805 c2 -26 -10 -34 -18 -12 -4 9 -6 9 -6 0 -1 -6 4 -15 9 -18 8
-5 8 -11 0 -20 -9 -11 -7 -12 9 -8 25 6 27 0 5 -21 -8 -9 -11 -16 -5 -16 5 0
13 5 16 10 4 7 13 7 26 0 13 -7 19 -7 19 0 0 5 -3 10 -8 10 -4 0 -13 10 -20
21 -11 17 -11 24 -1 33 9 8 11 7 6 -6 -4 -12 -2 -15 9 -11 20 7 17 15 -16 41
l-28 22 3 -25z"/>
<path d="M845 690 c3 -5 8 -10 11 -10 2 0 4 5 4 10 0 6 -5 10 -11 10 -5 0 -7
-4 -4 -10z"/>
<path d="M900 690 c0 -5 5 -10 10 -10 6 0 10 5 10 10 0 6 -4 10 -10 10 -5 0
-10 -4 -10 -10z"/>
<path d="M645 1069 c-10 -15 3 -25 16 -12 7 7 7 13 1 17 -6 3 -14 1 -17 -5z"/>
<path d="M866 1072 c-3 -6 -1 -14 5 -17 15 -10 25 3 12 16 -7 7 -13 7 -17 1z"/>
<path d="M1090 935 c-10 -12 -10 -19 -2 -27 16 -16 42 -2 42 22 0 24 -22 26
-40 5z m30 -4 c0 -12 -20 -25 -27 -18 -7 7 6 27 18 27 5 0 9 -4 9 -9z"/>
<path d="M1125 884 c-18 -44 -30 -47 -37 -9 -2 12 -11 20 -24 20 -11 0 -28 6
-37 13 -9 8 -24 12 -33 10 -22 -4 -31 -28 -11 -28 8 0 28 -15 43 -32 l27 -33
-29 -5 c-19 -3 -30 -12 -32 -25 -3 -31 39 -97 78 -119 30 -17 33 -17 21 -3
-12 16 -12 17 5 11 18 -7 19 -7 1 14 -11 12 -25 18 -35 15 -9 -4 -13 -2 -9 4
4 6 -2 18 -13 28 -27 25 -25 45 4 45 21 0 24 -5 23 -27 -2 -25 1 -28 28 -27
17 0 32 -3 35 -7 3 -4 25 -18 49 -31 56 -29 64 -48 21 -48 -35 0 -80 -38 -80
-68 0 -11 9 -31 21 -46 28 -36 15 -50 -60 -65 -70 -14 -123 -49 -97 -63 22
-12 56 -1 56 18 0 10 6 13 19 9 10 -3 46 6 80 21 59 26 62 28 56 56 -7 29 7
58 29 58 6 0 20 -19 31 -41 13 -27 34 -48 60 -63 22 -11 43 -25 47 -31 16 -22
7 -74 -17 -103 -25 -30 -25 -62 -1 -62 18 0 35 21 29 36 -3 8 1 14 11 14 9 0
16 8 16 20 0 13 7 20 19 20 23 0 45 25 36 41 -4 6 -18 9 -31 6 -22 -4 -24 -1
-24 33 0 29 -4 37 -16 36 -31 -2 -39 29 -22 81 l15 48 21 -47 c16 -36 27 -48
43 -48 18 0 19 2 9 15 -11 13 -8 15 17 15 28 0 29 2 31 51 2 48 0 53 -47 102
-63 67 -77 101 -56 133 22 33 54 32 47 -1 -6 -32 11 -51 70 -80 56 -27 64 -17
13 15 -40 25 -44 30 -15 23 19 -5 20 -3 9 23 -18 42 -30 52 -71 59 -47 9 -78
-19 -78 -70 0 -29 10 -46 55 -95 58 -63 71 -105 40 -130 -22 -18 -48 -4 -78
47 -26 43 -27 46 -11 65 17 17 17 20 1 36 -14 13 -21 14 -36 5 -16 -10 -22 -8
-35 12 -23 34 -20 70 7 89 12 9 17 14 10 11 -7 -3 -29 5 -50 18 -21 13 -59 35
-84 49 l-45 27 -19 -45z m-50 -24 c-5 -8 -11 -8 -17 -2 -6 6 -7 16 -3 22 5 8
11 8 17 2 6 -6 7 -16 3 -22z m28 -86 c-7 -3 -9 -12 -6 -20 3 -8 -1 -14 -11
-14 -9 0 -16 6 -16 14 0 14 15 24 35 24 6 0 5 -2 -2 -4z m270 -68 c3 -8 3 -17
0 -20 -9 -9 -34 15 -27 25 8 13 21 11 27 -5z m-21 -108 c-15 -15 -26 -4 -18
18 5 13 9 15 18 6 9 -9 9 -15 0 -24z m-42 -63 c0 -8 -7 -15 -15 -15 -8 0 -15
7 -15 15 0 8 7 15 15 15 8 0 15 -7 15 -15z m140 -145 c0 -12 -28 -25 -36 -17
-9 9 6 27 22 27 8 0 14 -5 14 -10z"/>
<path d="M1250 890 c0 -5 7 -10 16 -10 8 0 12 5 9 10 -3 6 -10 10 -16 10 -5 0
-9 -4 -9 -10z"/>
<path d="M678 811 c-15 -18 -14 -19 27 -17 24 0 41 4 38 9 -2 4 -11 7 -19 7
-8 0 -14 5 -14 10 0 16 -14 12 -32 -9z"/>
<path d="M660 769 c0 -5 -4 -7 -10 -4 -6 3 -7 -1 -4 -10 5 -12 14 -15 30 -11
15 4 24 2 24 -5 0 -8 4 -8 15 1 8 6 20 8 26 4 8 -4 9 -3 5 4 -4 7 -20 12 -37
12 -16 0 -29 5 -29 10 0 6 -4 10 -10 10 -5 0 -10 -5 -10 -11z"/>
<path d="M631 703 c7 -7 5 -13 -3 -16 -7 -2 15 -4 49 -3 35 0 63 4 63 9 0 4
-5 7 -11 7 -5 0 -8 4 -5 8 3 5 -19 8 -49 8 -39 -1 -51 -4 -44 -13z"/>
<path d="M816 641 c-4 -6 -13 -8 -19 -4 -7 4 -6 0 2 -10 11 -13 11 -17 1 -17
-8 0 -11 -3 -7 -6 3 -4 19 -2 36 4 21 8 31 7 33 0 5 -15 28 0 28 18 0 11 -7
13 -26 8 -16 -4 -29 -2 -34 6 -5 9 -9 9 -14 1z"/>
<path d="M627 610 c11 -47 32 -78 62 -91 20 -9 26 -16 18 -21 -8 -5 -7 -8 5
-8 9 0 19 8 22 18 5 16 9 92 7 118 -1 7 -23 11 -61 10 -58 -1 -59 -2 -53 -26z
m98 11 c-3 -5 -7 -24 -9 -41 -5 -48 -23 -60 -47 -31 -22 26 -24 47 -7 57 7 5
8 2 3 -7 -5 -8 -5 -11 0 -7 4 4 15 2 24 -4 13 -10 14 -10 4 2 -18 20 -16 35 2
20 13 -11 14 -10 9 4 -4 11 -1 16 11 16 9 0 14 -4 10 -9z"/>
<path d="M579 612 c-2 -7 -17 -15 -32 -16 -15 -2 -30 -6 -33 -9 -11 -11 18
-78 57 -129 21 -29 39 -56 39 -61 0 -5 6 -7 13 -4 6 2 33 -4 58 -14 82 -31
131 -34 180 -8 34 18 40 24 24 26 -58 10 -185 57 -185 69 0 7 -5 16 -12 20 -6
4 -8 3 -5 -3 4 -6 -2 -13 -13 -16 -14 -4 -18 -10 -13 -23 5 -13 3 -16 -10 -11
-13 5 -17 1 -17 -15 0 -17 -3 -19 -12 -10 -14 14 3 59 27 68 12 5 10 12 -10
38 -14 18 -31 50 -38 72 -8 21 -16 33 -18 26z m146 -212 c-5 -8 -11 -8 -17 -2
-6 6 -7 16 -3 22 5 8 11 8 17 2 6 -6 7 -16 3 -22z m75 -15 c0 -8 -4 -15 -9
-15 -13 0 -22 16 -14 24 11 11 23 6 23 -9z"/>
<path d="M790 578 c0 -4 6 -8 13 -8 8 0 7 -4 -3 -10 -21 -14 5 -13 31 0 10 6
19 7 19 2 0 -4 9 -8 20 -8 11 0 20 4 20 8 0 4 -5 8 -11 8 -5 0 -8 4 -5 8 2 4
-15 8 -40 8 -24 0 -44 -4 -44 -8z"/>
<path d="M803 532 c-7 -5 -9 -13 -4 -21 5 -8 14 -10 21 -6 9 5 11 4 6 -3 -4
-7 -2 -12 3 -12 6 0 11 5 11 11 0 5 5 7 10 4 6 -3 10 -1 10 4 0 6 -9 11 -19
11 -11 0 -21 4 -23 10 -1 5 -8 6 -15 2z"/>
<path d="M1261 457 c-15 -19 -3 -47 21 -47 15 0 19 6 16 27 -4 31 -20 40 -37
20z m29 -23 c0 -16 -16 -19 -25 -4 -8 13 4 32 16 25 5 -4 9 -13 9 -21z"/>
<path d="M1461 451 c-8 -13 -6 -23 5 -37 14 -18 15 -18 5 2 -12 26 9 50 34 40
20 -7 19 -36 -2 -53 -16 -13 -16 -13 5 -3 12 6 22 19 22 28 0 40 -51 57 -69
23z"/>
<path d="M1304 385 c-4 -9 -2 -21 4 -27 16 -16 47 -5 47 17 0 26 -42 34 -51
10z m37 -10 c-1 -15 -24 -12 -29 3 -3 9 2 13 12 10 10 -1 17 -7 17 -13z"/>
<path d="M435 357 c-22 -13 -69 -42 -104 -65 -65 -42 -133 -68 -151 -57 -6 3
-10 3 -10 -2 0 -4 20 -21 46 -37 60 -38 89 -32 200 38 97 62 124 71 99 33 -14
-22 -13 -29 9 -88 13 -35 34 -72 47 -81 67 -50 322 -50 387 0 13 9 35 45 49
80 23 59 24 64 9 87 -26 40 0 31 98 -31 111 -70 140 -76 200 -38 26 16 46 33
46 37 0 5 -4 5 -10 2 -20 -12 -88 17 -189 80 -147 92 -194 89 -245 -12 -23
-46 -20 -62 14 -81 16 -9 30 -20 30 -24 0 -17 -93 -32 -195 -32 -103 0 -195
15 -195 32 0 4 14 16 30 25 16 10 30 25 30 34 0 18 -28 70 -54 101 -26 30 -88
30 -141 -1z"/>
<path d="M730 325 c0 -15 -8 -34 -17 -41 -16 -12 -16 -12 5 -7 13 3 22 1 22
-6 0 -6 5 -11 11 -11 8 0 7 5 -1 16 -11 12 -11 18 2 30 13 13 16 13 28 0 10
-13 10 -19 0 -31 -9 -10 -9 -15 -1 -15 6 0 11 5 11 11 0 7 9 9 23 6 20 -5 20
-5 5 7 -10 7 -18 23 -18 35 0 14 -6 21 -19 21 -11 0 -26 3 -35 6 -12 5 -16 0
-16 -21z"/>
<path d="M1305 280 c-3 -5 -1 -10 4 -10 6 0 11 5 11 10 0 6 -2 10 -4 10 -3 0
-8 -4 -11 -10z"/>
<path d="M700 250 c0 -6 4 -10 9 -10 6 0 18 -13 28 -30 9 -16 22 -30 28 -30 6
0 19 14 28 30 10 17 22 30 28 30 5 0 9 4 9 10 0 16 -27 0 -38 -23 -9 -20 -11
-20 -17 -4 -7 17 -8 17 -20 0 -12 -15 -13 -15 -19 4 -7 22 -36 40 -36 23z"/>
</g>
</svg>
